HIERARCHY
ROOT Hips
{
 OFFSET 0.000000 0.000000 0.000000
 CHANNELS 6 Xposition Yposition Zposition Yrotation Xrotation Zrotation
 JOINT Chest
 {
  OFFSET 0.000000 9.585900 0.002600
  CHANNELS 3 Yrotation Xrotation Zrotation
  JOINT Chest2
  {
   OFFSET 0.000000 9.601200 -0.005300
   CHANNELS 3 Yrotation Xrotation Zrotation
   JOINT Chest3
   {
    OFFSET 0.000000 9.561800 0.000000
    CHANNELS 3 Yrotation Xrotation Zrotation
    JOINT Chest4
    {
     OFFSET 0.000000 9.552100 0.000000
     CHANNELS 3 Yrotation Xrotation Zrotation
     JOINT Neck
     {
      OFFSET 0.000000 14.453000 0.000000
      CHANNELS 3 Yrotation Xrotation Zrotation
      JOINT Head
      {
       OFFSET 0.000000 8.936500 -0.011300
       CHANNELS 3 Yrotation Xrotation Zrotation
       End Site
       {
        OFFSET 0.000000 17.073600 -0.006000
       }
      }
     }
     JOINT RightCollar
     {
      OFFSET -2.921100 9.558500 0.000000
      CHANNELS 3 Yrotation Xrotation Zrotation
      JOINT RightShoulder
      {
       OFFSET -13.519700 0.000000 0.000000
       CHANNELS 3 Yrotation Xrotation Zrotation
       JOINT RightElbow
       {
        OFFSET 0.000000 -29.696600 0.000000
        CHANNELS 3 Yrotation Xrotation Zrotation
        JOINT RightWrist
        {
         OFFSET 0.000000 -24.004700 0.000000
         CHANNELS 3 Yrotation Xrotation Zrotation
         End Site
         {
          OFFSET 0.000000 -17.728500 0.000000
         }
        }
       }
      }
     }
     JOINT LeftCollar
     {
      OFFSET 2.921100 9.558500 0.000000
      CHANNELS 3 Yrotation Xrotation Zrotation
      JOINT LeftShoulder
      {
       OFFSET 13.519700 0.000000 0.000000
       CHANNELS 3 Yrotation Xrotation Zrotation
       JOINT LeftElbow
       {
        OFFSET 0.000000 -29.696600 0.000000
        CHANNELS 3 Yrotation Xrotation Zrotation
        JOINT LeftWrist
        {
         OFFSET 0.000000 -24.004700 0.000000
         CHANNELS 3 Yrotation Xrotation Zrotation
         End Site
         {
          OFFSET 0.000000 -17.728500 0.000000
         }
        }
       }
      }
     }
    }
   }
  }
 }
 JOINT RightHip
 {
  OFFSET -7.771700 -0.012900 -0.001300
  CHANNELS 3 Yrotation Xrotation Zrotation
  JOINT RightKnee
  {
   OFFSET 0.000000 -40.869800 0.001200
   CHANNELS 3 Yrotation Xrotation Zrotation
   JOINT RightAnkle
   {
    OFFSET 0.000000 -39.717900 0.002100
    CHANNELS 3 Yrotation Xrotation Zrotation
    JOINT RightToe
    {
     OFFSET 0.000000 -4.965400 11.033500
     CHANNELS 3 Yrotation Xrotation Zrotation
     End Site
     {
      OFFSET 0.000000 -1.423100 5.872300
     }
    }
   }
  }
 }
 JOINT LeftHip
 {
  OFFSET 7.771700 -0.012900 -0.001300
  CHANNELS 3 Yrotation Xrotation Zrotation
  JOINT LeftKnee
  {
   OFFSET 0.000000 -40.869800 0.001200
   CHANNELS 3 Yrotation Xrotation Zrotation
   JOINT LeftAnkle
   {
    OFFSET 0.000000 -39.717900 0.002100
    CHANNELS 3 Yrotation Xrotation Zrotation
    JOINT LeftToe
    {
     OFFSET 0.000000 -4.965400 11.033500
     CHANNELS 3 Yrotation Xrotation Zrotation
     End Site
     {
      OFFSET 0.000000 -1.423100 5.872300
     }
    }
   }
  }
 }
}
MOTION
Frames: 8
Frame Time: 0.008333
-14.742276 55.302472 15.888827 -178.505272 -16.317877 -2.070928 0.814267 16.272949 0.300916 0.077006 1.623510 0.038254 0.141051 2.735385 0.057614 0.740045 14.415294 0.426685 1.388470 11.232734 6.328798 0.003494 -13.825723 6.524706 0.700082 -0.593564 2.227211 2.049661 -5.245681 -8.165203 -78.176869 -58.918157 110.152551 -14.731114 -8.715011 -8.279413 -7.042419 -2.801166 2.492407 2.235229 -11.012019 8.926271 54.944629 -55.525833 -97.776589 6.264443 -8.214363 6.471342 -1.428122 -58.497666 12.634547 -92.579616 87.030192 -97.075346 -11.367385 -22.242376 15.249273 0.063685 -0.185029 0.037820 10.484244 -55.246661 -5.905945 111.499147 77.111200 108.818466 -7.782614 -23.697589 1.904792 0.077151 0.230664 0.029424
-14.743150 55.302050 15.889652 -178.508994 -16.312515 -2.074516 0.829052 16.279800 0.300880 0.089708 1.641696 0.032393 0.132600 2.722682 0.064686 0.751765 14.428461 0.423008 1.354667 11.202190 6.305336 -0.015970 -13.852958 6.542458 0.677475 -0.648553 2.204169 2.044782 -5.227008 -8.128774 -78.181658 -58.922311 110.154113 -14.729484 -8.721559 -8.285298 -7.071411 -2.871646 2.524516 2.235153 -10.984413 8.920503 54.940955 -55.519279 -97.765523 6.268102 -8.221300 6.460732 -1.428493 -58.502815 12.638027 -92.452542 87.038089 -96.944905 -11.366799 -22.227378 15.244793 0.079509 -0.185687 0.037493 10.480881 -55.252010 -5.895663 111.500545 77.110225 108.817975 -7.787547 -23.704546 1.905977 0.077434 0.235897 0.030416
-14.744999 55.301903 15.889224 -178.509237 -16.313020 -2.073175 0.839202 16.295765 0.297289 0.093722 1.639434 0.031480 0.126433 2.717834 0.067749 0.766150 14.441340 0.417612 1.332190 11.179118 6.299224 -0.039069 -13.877411 6.541681 0.653095 -0.679896 2.204775 2.047468 -5.218891 -8.116199 -78.189867 -58.931639 110.158107 -14.730450 -8.724275 -8.279035 -7.092431 -2.908783 2.549680 2.234497 -10.970189 8.913927 54.951252 -55.517426 -97.774605 6.261529 -8.229909 6.457381 -1.421922 -58.502735 12.635482 -92.388653 87.041403 -96.872821 -11.416908 -22.209287 15.249246 0.120727 -0.182428 0.041895 10.479603 -55.250509 -5.894759 111.501510 77.107486 108.817419 -7.791144 -23.708977 1.905197 0.079894 0.237461 0.032656
-14.746194 55.302031 15.887710 -178.509577 -16.318280 -2.075816 0.867534 16.321555 0.296826 0.080579 1.630561 0.037260 0.122718 2.713080 0.069546 0.776490 14.455526 0.412164 1.311742 11.157204 6.292535 -0.059901 -13.900597 6.539860 0.633383 -0.706508 2.212523 2.049714 -5.221128 -8.115992 -78.189943 -58.936708 110.156660 -14.740361 -8.724706 -8.280156 -7.110281 -2.936976 2.570251 2.232728 -10.966080 8.911550 54.964695 -55.525979 -97.794335 6.262482 -8.237241 6.456871 -1.422654 -58.496941 12.639912 -92.334693 87.036536 -96.815564 -11.438274 -22.194965 15.251224 0.079079 -0.181218 0.039459 10.470656 -55.246383 -5.885778 111.529088 77.107819 108.845147 -7.786428 -23.714328 1.900317 0.087318 0.235046 0.036142
-14.747943 55.301974 15.886548 -178.502852 -16.319405 -2.077163 0.866164 16.327913 0.295755 0.084382 1.638151 0.035206 0.134679 2.726588 0.064276 0.766061 14.440320 0.418048 1.298004 11.146896 6.279067 -0.072637 -13.918234 6.541126 0.624175 -0.723534 2.211761 2.048230 -5.221104 -8.118837 -78.186231 -58.934973 110.161245 -14.733355 -8.732315 -8.288564 -7.118183 -2.956563 2.581816 2.221998 -10.976075 8.919133 54.961115 -55.512875 -97.782076 6.262100 -8.240835 6.444188 -1.424568 -58.495561 12.633011 -92.334121 87.028135 -96.818974 -11.407313 -22.186077 15.246676 -0.005149 -0.189567 0.033396 10.463417 -55.246232 -5.886036 111.537002 77.106136 108.853703 -7.787950 -23.714744 1.896834 0.088094 0.233346 0.039213
-14.749967 55.302029 15.884821 -178.499124 -16.322787 -2.076275 0.866160 16.336609 0.293336 0.084086 1.639650 0.034902 0.133457 2.723727 0.065235 0.769459 14.447732 0.415671 1.285938 11.135736 6.264365 -0.074426 -13.923549 6.553260 0.613343 -0.757825 2.177944 2.052290 -5.204836 -8.081467 -78.185093 -58.940834 110.160401 -14.728549 -8.737891 -8.296671 -7.132747 -3.002310 2.613076 2.232756 -10.946112 8.898384 54.959067 -55.513546 -97.779915 6.262432 -8.246544 6.432046 -1.419537 -58.492454 12.623850 -92.338289 87.018277 -96.823584 -11.394991 -22.176036 15.244078 0.065930 -0.183055 0.039708 10.463324 -55.242387 -5.890303 111.556612 77.107795 108.873533 -7.785541 -23.717240 1.899664 0.089471 0.231470 0.037800
-14.752363 55.301445 15.885097 -178.499020 -16.312881 -2.071980 0.869944 16.339798 0.286424 0.081893 1.633871 0.036619 0.137599 2.733280 0.062682 0.787100 14.470267 0.408733 1.259554 11.094524 6.262567 -0.092959 -13.942819 6.547104 0.588551 -0.808670 2.179103 2.049624 -5.204573 -8.073197 -78.178165 -58.939064 110.154785 -14.721321 -8.736139 -8.299870 -7.159476 -3.060541 2.649742 2.237932 -10.930740 8.887546 54.953171 -55.510457 -97.774824 6.258607 -8.251646 6.423917 -1.408446 -58.503095 12.613823 -92.276004 87.010723 -96.760600 -11.405110 -22.166390 15.247222 0.050890 -0.170879 0.036205 10.471726 -55.250662 -5.901915 111.542628 77.104223 108.856325 -7.781953 -23.717554 1.900389 0.081454 0.232858 0.037432
-14.755137 55.301084 15.884528 -178.495775 -16.307605 -2.066501 0.871993 16.343458 0.277614 0.089284 1.647113 0.033785 0.139260 2.737827 0.062158 0.783767 14.463493 0.411634 1.244162 11.073367 6.251784 -0.107145 -13.965656 6.537712 0.577926 -0.832658 2.181438 2.040043 -5.220666 -8.082719 -78.155414 -58.929606 110.137722 -14.716438 -8.730273 -8.300823 -7.171390 -3.095666 2.670843 2.236034 -10.923237 8.881664 54.950975 -55.516164 -97.774034 6.268680 -8.253490 6.428036 -1.396389 -58.510203 12.605803 -92.223059 86.994007 -96.700067 -11.458134 -22.148476 15.253287 0.039478 -0.164567 0.037190 10.476826 -55.254389 -5.913784 111.541902 77.102098 108.855546 -7.790549 -23.716562 1.903324 0.085496 0.231479 0.036660
